<svg width="547" height="547" viewBox="0 0 547 547" fill="none" xmlns="http://www.w3.org/2000/svg">
<path d="M371.96 43.76H153.16C92.7401 43.76 43.76 92.7401 43.76 153.16V371.96C43.76 432.38 92.7401 481.36 153.16 481.36H371.96C432.38 481.36 481.36 432.38 481.36 371.96V153.16C481.36 92.7401 432.38 43.76 371.96 43.76Z" stroke="black" stroke-width="43.76" stroke-linecap="round" stroke-linejoin="round"/>
<path d="M382.9 142.22H383.119" stroke="black" stroke-width="43.76" stroke-linecap="round" stroke-linejoin="round"/>
<path d="M380.671 273.829C386.928 267.572 386.928 257.428 380.671 251.171V251.171C374.418 244.918 364.281 244.913 358.023 251.161L313.692 295.412C301.087 307.994 279.562 299.067 279.562 281.257V150.063C279.562 141.191 272.371 134 263.5 134V134C254.629 134 247.438 141.191 247.438 150.062V281.135C247.438 298.962 225.877 307.881 213.283 295.265L169.208 251.111C162.914 244.806 152.699 244.801 146.399 251.101V251.101C140.104 257.396 140.104 267.604 146.399 273.899L249.358 376.858C257.168 384.668 269.832 384.668 277.642 376.858L380.671 273.829Z" fill="black"/>
</svg>
