<svg width="73" height="67" viewBox="0 0 73 67" fill="black" xmlns="http://www.w3.org/2000/svg">
<path d="M70.6938 40.8062C72.5198 38.9802 72.5198 36.0198 70.6938 34.1938V34.1938C68.869 32.369 65.9109 32.3677 64.0845 34.1909L59.7139 38.5536C52.8719 45.3834 41.1875 40.5375 41.1875 30.87V4.6875C41.1875 2.09867 39.0888 0 36.5 0V0C33.9112 0 31.8125 2.09867 31.8125 4.6875V30.8643C31.8125 40.5188 20.1358 45.3493 13.3152 38.5164L8.98288 34.1763C7.14612 32.3363 4.16505 32.335 2.32664 34.1734V34.1734C0.489386 36.0106 0.489385 38.9894 2.32664 40.8266L22.3579 60.8579C30.1683 68.6683 42.8316 68.6684 50.6421 60.8579L70.6938 40.8062Z" fill="white"/>
</svg>
